<?xml version="1.0" encoding="utf-8"?>
<svg viewBox="172.4 221.46 116.58 107.18" width="116.58" height="107.18" xmlns="http://www.w3.org/2000/svg">
  <path d="M 228.56051577777538 328.63594675702194 C 204.52573067768355 328.6359558105469 192.70108399923038 293.35666763717757 182.4030303955078 272.7610778808594 C 180.11264450651962 268.1804211889765 170.65054162105514 245.03676001468705 172.68565368652344 243.00164794921875 C 176.2764538860288 239.41084774971338 191.3633929509084 244.36599242506816 193.94239807128906 241.7869873046875 C 195.54037495146648 240.1890104245101 193.77964282960434 233.3656727714322 196.37173461914062 232.06961059570312 C 197.60244138766433 231.45424948135667 204.38083431444548 237.01058243863434 208.51844787597656 236.3209686279297 C 213.26037316943683 235.53063450825664 226.0392609434155 221.04566963482176 230.3825225830078 225.38893127441406 C 231.40165886706538 226.40806755847163 230.0918619167179 230.96050561915737 231.59719848632812 231.4622802734375 C 238.43625964686743 233.7419482352135 248.61751162480854 228.11454569743512 254.068603515625 225.38893127441406 C 254.95304701215673 224.9466984156073 260.1419677734375 220.26311157647638 260.1419677734375 221.7449188232422 C 260.1419677734375 236.2970902052108 251.01716197273248 226.61836659172064 244.9585723876953 232.6769561767578 C 244.36006857901745 233.27545998543567 242.5755206431716 236.97458375352315 243.13656616210938 237.53562927246094 C 245.95443627465167 240.35349938500323 257.60452034976913 227.8903151011447 259.5346374511719 226.6035919189453 C 261.2190892265091 225.48064287764203 264.393310546875 220.9351308186839 264.393310546875 222.95957946777344 C 264.393310546875 229.48503492546118 265.29829101238107 232.37924125884223 260.1419677734375 237.53562927246094 C 257.9568838955387 239.72074059978289 250.06147223830726 244.5793877801835 252.24659729003906 242.39431762695312 C 254.121221368275 240.5197406462746 273.5004532353726 226.59786110518124 274.1106872558594 227.81826782226562 C 280.40513351028727 240.40652778702986 254.71047839274416 242.18037638520957 248.6025848388672 244.21632385253906 C 247.02208624243445 244.74315230593976 239.14911344756956 253.93368530273438 241.31455993652344 253.93368530273438 C 251.3211780829728 253.93368530273438 264.5644153229326 250.1599194962487 274.718017578125 248.46766662597656 C 275.7110527898752 248.30216214341655 283.6973234298231 245.64619674179116 284.43536376953125 247.86033630371094 C 286.91254408470365 255.29193948681205 271.68133544921875 252.8780842385918 271.68133544921875 257.57769775390625 C 271.68133544921875 260.41192626953125 280.18402099609375 254.74346923828125 280.18402099609375 257.57769775390625 C 280.18402099609375 260.04738725455366 284.3024704564361 268.642804840934 281.3987121582031 271.5464172363281 C 276.9126482440311 276.03225574280674 267.9913854556887 276.5913437887306 262.5712890625 280.65643310546875 C 259.818040398065 282.7213782503896 250.01970717485193 285.51513671875 253.46127319335938 285.51513671875 C 262.39137568962195 285.51513671875 286.32884433231425 283.37194613365745 288.6867370605469 292.80316162109375 C 291.7089165881141 304.8914241721936 270.24653450941094 296.8609093810367 265.0006408691406 299.4838562011719 C 259.1584747291749 302.4049392711548 257.8833374890397 309.0304558378312 253.46127319335938 313.45257568359375 C 249.6926676757052 317.22122854256463 241.34752830400913 316.45616654562576 237.67054748535156 320.13323974609375 C 235.39231348901694 322.4115309816122 227.34584045410156 325.8303145530512 227.34584045410156 328.6359558105469" style="stroke: rgb(0, 0, 0); fill: rgb(255, 153, 153);"/>
</svg>