<?xml version="1.0" encoding="utf-8"?>
<svg viewBox="60.46 271.52 39.78 35.25" width="39.78" height="35.25" xmlns="http://www.w3.org/2000/svg">
  <g transform="matrix(1, 0, 0, 1, 1, 0)">
    <path d="M 74.9 297.05 C 74.12 296.9 61.54 294.62 60.94 294.02 C 58.35 291.43 59.15 273.4 63.37 277.62 C 66.49 280.74 65.97 287.51 68.83 290.37 C 70.52 292.06 76.73 288.39 76.73 289.16 C 76.73 291.99 79.56 297.66 76.73 297.66 C 76.4 297.66 69.44 296.45 69.44 296.45" style="stroke: rgb(0, 0, 0); fill: rgb(0, 163, 82);"/>
    <path d="M 68.83 306.77 C 62.43 306.77 70.23 300.27 71.87 301.91 C 75.09 305.14 70.69 306.77 67.62 306.77" style="stroke: rgb(0, 0, 0); fill: rgb(0, 163, 82);"/>
    <path d="M 83.41 300.7 C 72.31 300.7 84.02 290.99 85.23 292.2 C 89.28 296.25 83.41 298.88 83.41 298.88" style="stroke: rgb(0, 0, 0); fill: rgb(0, 163, 82);"/>
    <path d="M 90.7 292.8 C 91.34 290.24 90.33 277.38 91.91 275.8 C 95.04 272.67 101.24 291.59 98.59 291.59 C 96.28 291.59 91.36 290.37 91.3 290.37" style="stroke: rgb(0, 0, 0); fill: rgb(0, 163, 82);"/>
    <path d="M 83.41 272.76 C 80.66 272.07 76.71 270.35 74.3 272.76 C 74.09 272.97 73.31 278.83 73.69 278.83 C 83.21 278.83 81.59 273.98 81.59 273.98" style="stroke: rgb(0, 0, 0); fill: rgb(0, 163, 82);"/>
  </g>
</svg>