<?xml version="1.0" encoding="utf-8"?>
<svg viewBox="48.64 -2.47 184.02 57.2" width="184.02" height="57.2" xmlns="http://www.w3.org/2000/svg">
  <path d="M 229.1678512034694 54.72766976900772 C 229.1678466796875 48.24788194907878 222.4663696163251 26.203720301447127 224.30917358398438 24.360898971557617 C 226.74465322247366 21.925396386863 235.70543301014516 4.782982889594177 231.59719848632812 0.674816906452179 C 229.3421785192615 -1.5801654384704729 214.10929335308506 11.731710829662214 210.94778442382812 8.57017707824707 C 196.01880112184568 -6.358923436621215 147.5378875696706 -3.2841851212765807 124.70616149902344 1.2821522951126099 C 106.74909525641391 4.873559410741294 84.40667078783127 1.8894877433776855 65.79462432861328 1.8894877433776855 C 64.59981439602176 1.8894877433776855 50.055324688163786 0.5205507342320084 49.39656448364258 2.4968230724334717 C 48.9714175409226 3.7722585598868807 47.93214318617299 16.465538024902344 49.39656448364258 16.465538024902344 C 51.016604717203805 16.465538024902344 55.74320069051222 13.094805056749438 56.07725524902344 13.428860664367676 C 60.191061981894386 17.542680316755526 59.88129216355742 24.414244162362266 67.00929260253906 26.790239334106445 C 70.32480762790671 27.895408695353602 79.71056466045302 25.52281131449552 82.19268035888672 28.004911422729492 C 85.00916507540951 30.821378448876573 96.99661808945693 51.463158311668636 106.48609161376953 41.97362518310547 C 109.6879045645794 38.77179212141581 131.71377738008547 8.897013720608923 142.31887817382812 19.502214431762695 C 148.9752872051948 26.15868617739968 126.82476844660785 30.12364820097837 133.20884704589844 36.507606506347656 C 135.93400623224173 39.23271434305928 142.03185287823618 36.22056796373595 144.14088439941406 38.329612731933594 C 145.86167597720393 40.05041511817265 147.58504728054396 48.04698181152344 148.99957275390625 48.04698181152344 C 156.47756036871598 48.04698181152344 168.42792883497492 42.580963134765625 178.75901794433594 42.580963134765625 C 183.1029158652635 42.580963134765625 202.28947789593553 39.995989369541974 204.8744354248047 42.580963134765625 C 207.06924174425026 44.775783239990304 226.87126487848323 52.2983283996582 229.1678466796875 52.2983283996582" style="stroke: rgb(0, 0, 0); fill: rgb(179, 102, 255);"/>
</svg>