<?xml version="1.0" encoding="utf-8"?>
<svg viewBox="47.24 8.57 236.91 247.79" width="236.91" height="247.79" xmlns="http://www.w3.org/2000/svg">
  <g>
    <path d="M 122.88 256.36 C 122.88 246.66 115.3 251.71 109.52 247.86 C 104.06 244.22 98.29 237.39 91.3 233.89 C 72.64 224.56 64.9 258.21 51.22 230.85 C 49.95 228.31 49.21 223.7 50 220.53 C 50.51 218.52 51.79 216.12 53.04 214.46 C 64.28 199.48 62.93 222.27 74.9 216.28 C 78.8 214.33 76.44 209.42 82.19 207.78 C 90.02 205.54 98.8 205.51 105.27 202.92 C 109.34 201.29 127.12 202.34 128.35 199.88 C 128.75 199.09 133.18 194.39 132.6 193.81 C 126.52 187.72 97.6 198.67 87.05 198.67 C 82.39 198.67 73.08 203.93 73.08 199.27 C 73.08 194.48 63.19 189.03 61.54 184.09 C 61.49 183.94 59.9 168.3 59.72 168.3 C 58.45 168.3 53.09 166.42 51.83 167.69 C 51.77 167.75 49.4 172.18 49.4 171.34 C 49.4 161.18 42.91 129.94 52.43 125.18 C 58.88 121.95 60.23 133.07 64.58 133.07 C 71.94 133.07 73.51 130.21 77.33 126.39 C 79.3 124.42 72.84 121.78 74.3 120.32 C 80.61 114.01 71.26 113.29 71.26 110 C 71.26 108.36 75.97 107.87 74.9 105.74 C 71.11 98.16 64.98 81.25 71.87 77.81 C 85.69 70.89 87.39 96.5 94.95 100.28 C 108.54 107.08 105.75 76.59 108.31 76.59 C 118.37 76.59 116.46 95.66 127.74 88.13 C 131.68 85.51 140.03 80.89 141.1 76.59 C 142.79 69.84 135.38 57.42 140.5 52.3 C 147.67 45.12 161.83 42.35 172.08 38.94 C 180.87 36.01 188.58 42 195.76 43.8 C 208.48 46.97 219.21 42.34 227.35 50.48 C 229.25 52.38 240.11 68.69 241.92 68.09 C 247.78 66.14 276.65 64.91 280.79 71.13 C 289.13 83.63 280.19 97.84 272.9 105.14 C 272.23 105.8 272.89 112.42 271.68 112.42 C 268.67 112.42 267.68 94.56 259.54 102.7 C 255.7 106.54 251.56 104.84 254.68 107.57 C 260.73 112.86 256.89 118.93 244.96 116.07 C 244.95 116.11 246.01 124.57 245.57 124.57 C 241.51 124.57 238.17 118.6 235.24 121.53 C 228.46 128.32 241.95 134.35 243.14 136.72 C 244.91 140.25 240.15 142.89 240.71 144.01 C 242.85 148.29 247.79 151.29 249.21 155.55 C 249.93 157.7 247.65 164.92 249.21 166.48 C 251.81 169.08 267.28 171.04 263.79 178.02 C 261.59 182.41 246.08 177.96 243.14 176.19 C 242.9 176.05 234.63 170.88 234.63 171.34 C 234.63 179.57 223.42 202.81 213.98 205.95 C 208.61 207.74 204.75 202.76 200.62 204.13 C 198.95 204.69 196.91 209.56 194.55 208.38 C 193.55 207.88 189 180.53 182.4 187.13 C 178.14 191.39 184.9 204.06 181.19 207.78 C 177.45 211.52 171.6 216.76 167.83 220.53 C 166.34 222.02 164.79 229.03 163.58 231.46 C 163.4 231.82 163.7 237.54 163.58 237.54 C 157.41 237.54 150.24 234.79 143.53 238.14 C 134.13 242.85 125.25 255.76 121.06 255.76" style="stroke: rgb(0, 0, 0); fill: rgb(255, 179, 102);"/>
    <path d="M 110.13 68.09 C 110.88 65.85 116.2 66.81 116.2 64.45 C 116.2 62.23 119.53 53.2 117.42 51.08 C 114.42 48.09 102.76 59.14 101.02 62.62 C 98.73 67.21 108.92 66.27 108.92 66.27" style="stroke: rgb(0, 0, 0); fill: rgb(255, 179, 102);"/>
    <path d="M 260.75 52.91 C 260.56 52.91 245.72 29.29 248.6 24.97 C 250.76 21.73 258.93 34.33 258.93 30.43 C 258.93 29.39 259.72 11.18 261.96 13.43 C 264.18 15.65 271.68 38.02 271.68 41.37 C 271.68 42.94 272.95 52.85 271.68 54.12 C 269.26 56.54 257.11 57.38 257.11 52.3" style="stroke: rgb(0, 0, 0); fill: rgb(255, 179, 102);"/>
    <path d="M 278.97 32.26 C 275.79 37.03 270.94 11.68 277.15 8.57 C 277.67 8.31 285.06 26.15 282.61 31.04 C 282.01 32.24 278.36 32.26 278.36 32.26" style="stroke: rgb(0, 0, 0); fill: rgb(255, 179, 102);"/>
    <path d="M 249.21 9.18 C 244.93 10.6 243.54 22.81 249.82 20.72 C 256.36 18.54 253.69 11.61 248.6 11.61" style="stroke: rgb(0, 0, 0); fill: rgb(255, 179, 102);"/>
  </g>
</svg>